{"glyphs":{":":{"x_min":0,"x_max":345,"ha":345,"o":"m 199 102 l 110 102 l 110 0 l 199 0 z m 199 525 l 110 525 l 110 423 l 199 423 z"},"$":{"x_min":0,"x_max":690,"ha":690,"o":"m 313 416 q 269 416 234 418 q 198 419 173 432 q 148 444 134 472 q 121 499 121 551 q 121 599 132 626 q 144 652 168 664 q 191 676 227 678 q 263 680 313 680 z m 378 346 q 429 344 466 342 q 503 340 528 328 q 553 316 565 288 q 577 261 577 207 q 577 158 566 130 q 556 103 533 90 q 510 76 472 73 q 433 70 378 70 z m 378 680 q 435 680 470 677 q 505 674 525 662 q 545 651 552 628 q 559 604 559 563 l 559 540 l 644 540 l 644 563 q 644 630 628 668 q 611 705 578 724 q 545 742 495 746 q 445 750 378 750 l 378 820 l 313 820 l 313 750 q 245 750 194 744 q 142 739 107 718 q 72 696 54 654 q 36 611 36 538 q 36 468 57 430 q 78 391 114 372 q 151 354 202 350 q 253 346 313 346 l 313 70 q 241 70 201 75 q 161 80 142 95 q 123 110 119 137 q 115 164 115 207 l 115 233 l 30 233 l 30 207 q 30 133 48 92 q 66 50 102 30 q 138 10 191 5 q 244 0 313 0 l 313 -85 l 378 -85 l 378 0 q 452 0 506 7 q 560 14 594 37 q 629 60 646 103 q 662 146 662 218 q 662 292 640 332 q 618 372 580 390 q 541 408 490 412 q 438 415 378 416 z"},"?":{"x_min":0,"x_max":584,"ha":584,"o":"m 299 214 l 299 241 q 299 263 302 276 q 306 290 316 299 q 327 308 346 316 q 365 323 397 334 q 442 350 468 370 q 495 389 508 416 q 521 442 524 476 q 528 511 528 556 q 528 617 515 656 q 502 695 474 717 q 447 739 403 748 q 359 756 298 756 q 237 756 192 750 q 148 745 118 724 q 89 704 74 664 q 58 625 57 556 l 57 513 l 137 513 l 137 556 q 137 601 144 626 q 152 651 170 663 q 189 675 220 678 q 251 681 298 681 q 344 681 374 677 q 403 673 420 660 q 436 648 442 623 q 448 598 448 556 q 448 513 445 488 q 442 463 432 448 q 422 433 404 423 q 386 413 355 401 q 312 385 284 372 q 257 359 242 342 q 226 325 220 301 q 214 277 214 241 l 214 214 z m 301 102 l 212 102 l 212 0 l 301 0 z"},"<":{"x_min":0,"x_max":584,"ha":584,"o":"m 534 484 l 50 277 l 50 207 l 534 0 l 534 80 l 139 242 l 534 404 z"},"'":{"x_min":0,"x_max":191,"ha":191,"o":"m 49 750 l 49 639 l 76 504 l 116 504 l 143 639 l 143 750 z"},"=":{"x_min":0,"x_max":584,"ha":584,"o":"m 50 399 l 50 324 l 534 324 l 534 399 z m 50 244 l 50 169 l 534 169 l 534 244 z"},"a":{"x_min":0,"x_max":570,"ha":570,"o":"m 263 58 q 229 58 204 60 q 179 63 163 73 q 147 83 139 104 q 131 125 131 163 q 131 195 138 213 q 146 231 162 240 q 178 249 203 252 q 228 254 263 254 q 300 254 330 252 q 360 251 380 242 q 400 233 411 213 q 422 193 422 156 q 422 120 408 100 q 395 80 372 71 q 350 62 322 60 q 293 58 263 58 z m 503 0 l 503 358 q 503 418 486 452 q 469 487 438 504 q 408 522 366 526 q 324 531 275 531 q 231 531 193 528 q 155 525 126 510 q 98 496 82 468 q 65 439 65 388 l 65 377 l 147 377 l 147 395 q 147 422 160 436 q 172 451 192 458 q 212 465 236 466 q 261 467 284 467 q 317 467 343 464 q 369 461 387 450 q 405 440 414 419 q 424 398 424 362 l 424 265 l 419 265 q 415 283 396 294 q 377 304 352 310 q 327 315 300 316 q 273 318 254 318 q 205 318 167 312 q 129 307 102 290 q 76 273 62 240 q 49 207 49 153 q 49 102 64 70 q 78 39 104 22 q 131 5 168 0 q 205 -6 249 -6 q 274 -6 300 -5 q 326 -4 349 2 q 372 8 392 20 q 411 33 422 56 l 424 54 l 424 0 z"},"L":{"x_min":0,"x_max":558,"ha":558,"o":"m 160 750 l 75 750 l 75 0 l 542 0 l 542 75 l 160 75 z"},"3":{"x_min":0,"x_max":690,"ha":690,"o":"m 275 347 l 364 347 q 404 347 435 345 q 466 343 488 332 q 509 320 520 294 q 531 269 531 221 q 531 165 524 134 q 517 103 496 88 q 474 73 433 70 q 392 68 324 69 q 264 70 228 73 q 192 76 173 88 q 154 100 148 124 q 143 149 143 193 l 143 243 l 58 243 l 58 193 q 57 127 74 88 q 91 49 125 28 q 159 7 209 0 q 259 -6 324 -6 q 391 -6 446 -4 q 500 -1 538 18 q 575 38 596 82 q 616 127 616 212 q 616 253 610 284 q 605 315 590 336 q 574 357 547 369 q 520 381 477 384 l 477 386 q 518 389 542 403 q 567 417 580 440 q 593 464 597 494 q 601 525 601 561 q 601 634 582 674 q 562 713 526 731 q 491 749 442 752 q 392 756 332 756 q 267 756 218 751 q 168 746 135 726 q 102 706 85 665 q 68 624 68 552 l 68 520 l 153 520 l 153 552 q 154 596 160 622 q 167 647 184 660 q 202 674 234 678 q 267 681 321 681 q 387 681 426 678 q 465 674 485 660 q 505 646 510 619 q 516 592 516 546 q 516 498 508 473 q 499 448 480 437 q 462 426 433 424 q 404 423 364 422 l 275 422 z"},";":{"x_min":0,"x_max":345,"ha":345,"o":"m 159 0 l 159 -19 q 159 -47 148 -56 q 137 -66 110 -67 l 110 -112 l 133 -112 q 158 -112 173 -105 q 188 -98 196 -86 q 205 -73 208 -56 q 210 -39 210 -19 l 210 102 l 121 102 l 121 0 z m 210 525 l 121 525 l 121 423 l 210 423 z"},"J":{"x_min":0,"x_max":565,"ha":565,"o":"m 409 750 l 408 169 q 408 131 394 111 q 380 91 358 82 q 335 72 307 70 q 279 69 250 69 q 205 69 178 74 q 151 80 137 94 q 123 107 118 130 q 114 153 114 188 l 114 273 l 29 273 l 29 163 q 29 107 48 74 q 66 41 98 23 q 130 5 173 0 q 216 -6 265 -6 q 315 -6 357 2 q 399 10 429 31 q 459 52 476 88 q 493 125 493 181 l 493 750 z"},"V":{"x_min":0,"x_max":643,"ha":643,"o":"m 558 750 l 324 65 l 321 65 l 85 750 l -6 750 l 262 0 l 383 0 l 649 750 z"},"\"":{"x_min":0,"x_max":355,"ha":355,"o":"m 51 750 l 51 639 l 78 504 l 118 504 l 145 639 l 145 750 z m 210 750 l 210 639 l 237 504 l 277 504 l 304 639 l 304 750 z"},"7":{"x_min":0,"x_max":690,"ha":690,"o":"m 610 750 l 63 750 l 63 680 l 540 680 l 146 0 l 246 0 l 610 643 z"},"S":{"x_min":0,"x_max":629,"ha":629,"o":"m 311 346 q 362 342 400 341 q 438 340 463 330 q 488 321 500 296 q 512 270 512 216 q 512 161 502 131 q 493 101 470 88 q 447 74 408 72 q 368 69 308 69 q 248 69 211 72 q 174 74 153 90 q 132 105 125 138 q 118 172 119 234 l 34 234 q 28 153 43 105 q 58 57 93 32 q 128 8 182 1 q 236 -6 308 -6 q 379 -6 433 -2 q 487 3 524 24 q 560 45 578 89 q 597 133 597 213 q 597 289 580 330 q 563 370 530 389 q 496 408 446 412 q 396 417 329 421 q 276 422 237 424 q 198 425 172 436 q 147 448 134 475 q 121 502 121 556 q 121 595 127 620 q 133 644 153 658 q 173 671 210 676 q 248 681 310 681 q 370 681 406 678 q 442 675 462 662 q 482 649 489 622 q 496 594 498 545 l 583 545 q 586 621 567 664 q 548 707 512 727 q 476 747 425 752 q 374 756 313 756 q 244 756 192 750 q 140 744 106 722 q 71 700 54 656 q 36 613 36 538 q 36 464 58 426 q 80 389 118 372 q 156 356 206 353 q 255 350 311 346 z"},"}":{"x_min":0,"x_max":334,"ha":334,"o":"m 286 340 q 260 343 245 354 q 230 364 222 381 q 213 398 210 421 q 208 444 208 473 l 208 637 q 208 664 199 686 q 190 708 177 724 q 164 739 150 748 q 136 756 126 756 l 43 756 l 43 681 l 87 681 q 109 681 116 664 q 123 648 123 619 l 123 457 q 123 418 133 390 q 143 362 156 344 q 168 325 180 316 q 192 306 195 303 q 192 301 180 291 q 168 281 156 262 q 143 244 133 216 q 123 188 123 149 l 123 -14 q 123 -43 116 -59 q 109 -75 87 -75 l 43 -75 l 43 -150 l 126 -150 q 136 -150 150 -142 q 164 -133 177 -117 q 190 -101 199 -80 q 208 -58 208 -31 l 208 133 q 208 162 210 186 q 213 209 222 226 q 230 242 245 252 q 260 262 286 265 z"},"Z":{"x_min":0,"x_max":637,"ha":637,"o":"m 601 750 l 40 750 l 40 675 l 497 675 l 26 74 l 26 0 l 611 0 l 611 75 l 129 75 l 601 671 z"},"x":{"x_min":0,"x_max":454,"ha":454,"o":"m 438 525 l 346 525 l 227 333 l 105 525 l 16 525 l 186 274 l -4 0 l 91 0 l 227 212 l 363 0 l 458 0 l 271 274 z"},")":{"x_min":0,"x_max":312,"ha":312,"o":"m 62 681 l 89 681 q 120 681 137 664 q 154 648 162 624 q 169 599 170 571 q 172 543 172 521 l 172 85 q 172 62 170 34 q 169 7 162 -18 q 154 -42 137 -58 q 120 -75 89 -75 l 62 -75 l 62 -150 l 89 -150 q 144 -150 178 -131 q 211 -112 228 -80 q 246 -47 252 -4 q 257 38 257 85 l 257 521 q 257 568 252 610 q 246 653 228 686 q 211 718 178 737 q 144 756 89 756 l 62 756 z"},"&":{"x_min":0,"x_max":788,"ha":788,"o":"m 563 144 q 556 113 533 98 q 510 82 480 76 q 449 69 414 69 q 379 69 349 69 q 283 69 244 73 q 204 77 183 92 q 162 108 156 140 q 149 171 149 226 q 149 271 152 298 q 156 324 168 340 q 181 357 205 366 q 229 376 270 385 z m 740 0 l 786 59 l 650 167 q 655 193 657 220 q 659 246 659 272 q 659 287 658 302 q 658 316 657 331 l 579 331 q 579 318 580 305 q 582 292 581 279 q 580 266 580 254 q 579 242 578 229 l 286 474 q 271 486 261 496 q 251 507 245 519 q 239 531 236 545 q 234 559 234 579 q 234 616 246 636 q 257 657 276 667 q 296 677 322 679 q 349 681 379 681 q 421 681 446 676 q 471 672 484 660 q 497 647 502 625 q 506 603 506 567 l 506 520 l 591 520 l 591 567 q 591 626 577 663 q 563 700 536 720 q 509 741 470 748 q 430 756 379 756 q 324 756 281 749 q 238 742 209 723 q 180 704 164 669 q 149 634 149 579 q 149 547 152 526 q 156 505 164 489 q 173 473 186 460 q 199 446 217 431 q 181 421 152 414 q 124 406 104 387 q 85 368 74 332 q 64 295 64 227 q 64 139 85 92 q 106 44 144 22 q 182 1 234 -2 q 287 -6 349 -6 q 394 -6 438 -4 q 481 -3 518 6 q 555 15 584 35 q 613 55 629 92 z"},"_":{"x_min":0,"x_max":500,"ha":500,"o":"m 500 -75 l 0 -75 l 0 -125 l 500 -125 z"},"v":{"x_min":0,"x_max":453,"ha":453,"o":"m 457 525 l 371 525 l 227 60 l 225 60 l 76 525 l -4 525 l 170 0 l 281 0 z"},"O":{"x_min":0,"x_max":671,"ha":671,"o":"m 285 756 q 215 755 168 742 q 121 729 93 700 q 65 670 53 622 q 41 574 41 504 l 41 237 q 41 171 54 124 q 67 78 96 49 q 124 20 170 7 q 217 -6 285 -6 l 386 -6 q 453 -6 500 7 q 547 20 576 49 q 604 78 617 124 q 630 171 630 237 l 630 504 q 630 574 618 622 q 606 670 578 700 q 550 729 503 742 q 456 755 386 756 z m 386 681 q 433 681 464 674 q 495 667 513 648 q 531 628 538 594 q 545 559 545 504 l 545 237 q 545 181 536 148 q 526 115 506 98 q 487 80 457 74 q 427 69 386 69 l 285 69 q 244 69 214 74 q 184 80 164 98 q 145 115 136 148 q 126 181 126 237 l 126 504 q 126 559 133 594 q 140 628 158 648 q 176 667 207 674 q 238 681 285 681 z"},"(":{"x_min":0,"x_max":312,"ha":312,"o":"m 250 756 l 223 756 q 167 756 134 737 q 101 718 84 686 q 66 653 60 610 q 55 568 55 521 l 55 85 q 55 38 60 -4 q 66 -47 84 -80 q 101 -112 134 -131 q 167 -150 223 -150 l 250 -150 l 250 -75 l 223 -75 q 192 -75 175 -58 q 158 -42 150 -18 q 143 7 142 34 q 140 62 140 85 l 140 521 q 140 543 142 571 q 143 599 150 624 q 158 648 175 664 q 192 681 223 681 l 250 681 z"},"C":{"x_min":0,"x_max":665,"ha":665,"o":"m 383 -6 q 439 -6 487 0 q 535 5 570 25 q 604 45 624 82 q 643 120 643 185 l 643 255 l 558 255 l 558 195 q 558 155 550 130 q 541 105 520 92 q 499 78 465 74 q 431 69 380 69 l 279 69 q 226 69 196 84 q 166 98 152 128 q 137 159 134 206 q 130 253 130 317 l 130 523 q 130 574 142 606 q 155 637 183 654 q 211 670 256 676 q 302 681 368 681 l 416 681 q 457 681 483 674 q 509 666 524 648 q 538 631 543 604 q 548 576 548 537 l 548 516 l 633 516 l 633 540 q 633 595 623 636 q 613 677 590 704 q 566 730 526 743 q 487 756 428 756 l 358 756 q 290 756 232 749 q 175 742 134 718 q 92 693 68 646 q 45 599 45 520 l 45 230 q 45 117 102 56 q 160 -6 263 -6 z"},"W":{"x_min":0,"x_max":1123,"ha":1123,"o":"m 1121 750 l 1033 750 l 824 65 l 822 65 l 622 750 l 497 750 l 295 65 l 293 65 l 89 750 l 2 750 l 232 0 l 359 0 l 558 675 l 560 675 l 756 0 l 885 0 z"},"A":{"x_min":0,"x_max":685,"ha":685,"o":"m 532 159 l 591 0 l 679 0 l 399 750 l 279 750 l 6 0 l 95 0 l 153 159 z m 508 229 l 176 229 l 341 680 z"},"f":{"x_min":0,"x_max":302,"ha":302,"o":"m 167 525 l 167 596 q 167 622 170 640 q 173 659 182 670 q 192 682 210 687 q 227 692 257 692 q 269 692 282 692 q 294 691 306 690 l 306 754 q 294 755 282 756 q 269 756 257 756 q 209 756 176 748 q 144 739 124 720 q 105 700 96 668 q 88 636 88 588 l 88 525 l 8 525 l 8 461 l 88 461 l 88 0 l 167 0 l 167 461 l 306 461 l 306 525 z"},"Q":{"x_min":0,"x_max":737,"ha":737,"o":"m 734 92 l 671 134 q 682 165 684 200 q 687 234 687 281 l 687 493 q 687 566 673 616 q 659 667 628 698 q 598 729 548 742 q 498 756 426 756 l 309 756 q 238 754 189 738 q 140 723 109 692 q 78 660 64 611 q 50 562 50 493 l 50 281 q 50 205 60 151 q 71 97 100 62 q 128 27 178 10 q 229 -6 309 -6 l 426 -6 q 495 -6 550 10 q 606 27 643 72 l 699 34 z m 380 326 l 341 268 l 575 116 q 566 102 551 93 q 536 84 518 79 q 501 74 482 72 q 462 69 443 69 l 300 69 q 252 69 220 76 q 189 84 170 106 q 151 127 143 166 q 135 204 135 266 l 135 510 q 135 557 143 590 q 151 622 170 642 q 189 663 220 672 q 252 681 300 681 l 443 681 q 494 681 525 669 q 556 657 573 636 q 590 615 596 586 q 602 556 602 522 l 602 243 q 602 230 602 213 q 601 196 596 184 z"},"w":{"x_min":0,"x_max":754,"ha":754,"o":"m 751 525 l 669 525 l 550 55 l 548 55 l 434 525 l 321 525 l 206 55 l 204 55 l 85 525 l 4 525 l 146 0 l 262 0 l 375 470 l 377 470 l 489 0 l 604 0 z"},"-":{"x_min":0,"x_max":261,"ha":261,"o":"m 0 311 l 0 236 l 261 236 l 261 311 z"},"E":{"x_min":0,"x_max":560,"ha":560,"o":"m 126 675 l 523 675 l 523 750 l 41 750 l 41 0 l 523 0 l 523 75 l 126 75 l 126 350 l 506 350 l 506 420 l 126 420 z"},"s":{"x_min":0,"x_max":537,"ha":537,"o":"m 484 408 q 484 453 465 478 q 446 502 416 514 q 386 526 350 528 q 313 531 279 531 q 226 531 184 528 q 141 525 112 510 q 82 496 66 464 q 50 433 50 376 q 50 320 70 292 q 89 263 122 250 q 154 238 195 236 q 236 234 279 231 q 315 229 341 229 q 367 229 384 222 q 400 216 408 199 q 416 182 416 145 q 416 110 402 93 q 388 76 368 70 q 347 63 323 64 q 299 64 279 64 q 234 64 205 66 q 176 69 158 76 q 141 82 134 94 q 128 106 128 125 l 128 166 l 46 166 l 46 117 q 46 73 66 48 q 87 24 120 12 q 153 0 194 -3 q 236 -6 279 -6 q 323 -6 362 -3 q 402 0 432 15 q 462 30 480 61 q 498 92 498 148 q 498 212 476 244 q 455 275 420 288 q 384 301 338 302 q 291 303 240 306 q 209 307 188 308 q 168 310 156 318 q 143 326 138 344 q 132 362 132 397 q 132 421 141 434 q 150 447 168 453 q 187 459 214 460 q 242 461 279 461 q 310 461 333 460 q 356 459 372 454 q 387 449 394 438 q 402 428 402 408 l 402 388 l 484 388 z"},">":{"x_min":0,"x_max":584,"ha":584,"o":"m 534 277 l 50 484 l 50 404 l 441 242 l 50 80 l 50 0 l 534 207 z"},"l":{"x_min":0,"x_max":214,"ha":214,"o":"m 147 750 l 68 750 l 68 0 l 147 0 z"},"8":{"x_min":0,"x_max":690,"ha":690,"o":"m 195 389 q 150 382 124 368 q 98 354 85 332 q 72 309 68 278 q 65 247 65 207 q 65 126 84 83 q 102 40 138 20 q 174 0 226 -3 q 278 -6 345 -6 q 427 -6 481 0 q 535 7 567 29 q 599 51 612 93 q 625 135 625 207 q 625 252 620 284 q 614 316 600 338 q 585 359 560 371 q 535 383 497 389 l 497 390 q 538 397 562 412 q 585 426 597 448 q 609 469 612 498 q 616 526 616 562 q 616 632 599 672 q 582 711 548 730 q 514 748 463 752 q 412 756 345 756 q 276 756 225 752 q 174 748 140 729 q 107 710 91 671 q 75 632 75 562 q 75 520 80 491 q 84 462 97 442 q 110 422 134 410 q 157 398 195 391 z m 160 562 q 160 602 164 626 q 169 649 188 662 q 207 674 244 678 q 280 681 345 681 q 410 681 447 677 q 484 673 503 660 q 522 647 526 624 q 531 601 531 562 q 531 518 526 491 q 521 464 502 449 q 483 434 446 429 q 409 424 345 424 q 280 424 243 430 q 206 435 188 450 q 169 465 164 492 q 160 519 160 562 z m 150 207 q 150 256 157 284 q 164 313 185 328 q 206 342 244 346 q 282 349 345 349 q 410 349 448 344 q 487 340 508 325 q 528 310 534 282 q 540 254 540 207 q 540 164 533 136 q 526 109 505 94 q 484 78 446 73 q 408 68 345 69 q 276 70 236 74 q 197 79 178 94 q 159 108 154 135 q 150 162 150 207 z"},"\\":{"x_min":0,"x_max":278,"ha":278,"o":"m 237 -113 l 328 -113 l 43 750 l -50 750 z"},"e":{"x_min":0,"x_max":565,"ha":565,"o":"m 431 159 l 431 139 q 431 111 424 95 q 417 79 400 70 q 383 62 356 60 q 328 58 288 58 q 235 58 204 64 q 173 70 158 90 q 142 109 138 146 q 134 183 134 245 l 512 245 l 512 298 q 512 371 501 416 q 490 462 464 488 q 438 513 395 522 q 352 531 288 531 q 217 531 172 520 q 126 508 100 478 q 73 448 62 396 q 52 344 52 262 q 52 187 60 136 q 68 84 93 52 q 118 21 164 8 q 211 -6 288 -6 q 332 -6 372 -2 q 413 1 444 15 q 475 29 494 58 q 512 88 512 140 l 512 159 z m 134 309 q 136 354 140 384 q 145 415 160 434 q 175 452 204 460 q 234 467 288 467 q 333 467 360 464 q 387 460 402 444 q 417 428 422 396 q 428 365 430 309 z"},"b":{"x_min":0,"x_max":574,"ha":574,"o":"m 441 262 q 441 208 438 170 q 435 131 421 106 q 407 81 378 70 q 348 58 296 58 q 252 58 224 66 q 196 74 179 96 q 162 119 156 158 q 149 198 149 262 q 149 318 152 357 q 156 396 170 420 q 185 445 214 456 q 244 467 296 467 q 343 467 372 459 q 400 451 416 429 q 431 407 436 366 q 441 326 441 262 z m 68 0 l 147 0 l 147 62 l 149 64 q 160 43 178 29 q 195 15 218 8 q 240 0 266 -3 q 291 -6 318 -6 q 386 -6 426 12 q 467 30 488 64 q 510 98 516 148 q 523 198 523 262 q 523 323 516 373 q 510 423 488 458 q 467 493 426 512 q 386 531 318 531 q 295 531 270 529 q 244 527 220 520 q 196 512 177 497 q 158 482 149 457 l 147 457 l 147 750 l 68 750 z"},"%":{"x_min":0,"x_max":884,"ha":884,"o":"m 862 240 q 861 285 852 312 q 842 338 822 352 q 802 367 771 371 q 740 375 696 375 q 652 375 622 370 q 593 366 574 352 q 555 338 546 311 q 538 284 537 239 l 537 129 q 538 84 546 58 q 555 31 574 16 q 593 2 623 -2 q 653 -6 697 -6 q 740 -6 771 -2 q 802 3 822 17 q 842 31 852 58 q 861 85 862 130 z m 731 750 l 661 750 l 155 -6 l 222 -6 z m 802 132 q 802 101 797 84 q 792 67 780 60 q 768 52 748 50 q 727 49 696 49 q 665 49 646 50 q 627 52 616 60 q 605 67 601 84 q 597 101 597 132 l 597 242 q 597 271 601 286 q 605 302 616 310 q 627 317 646 318 q 665 320 696 320 q 729 320 750 318 q 770 317 782 310 q 794 302 798 286 q 802 271 802 242 z m 347 621 q 346 666 336 692 q 327 719 307 734 q 287 748 256 752 q 225 756 181 756 q 137 756 108 752 q 78 747 59 733 q 40 719 32 692 q 23 665 22 620 l 22 510 q 23 465 32 438 q 40 412 59 398 q 78 383 108 379 q 138 375 182 375 q 225 375 256 380 q 287 384 307 398 q 327 412 336 439 q 346 466 347 511 z m 287 513 q 287 482 282 465 q 277 448 265 440 q 253 433 232 432 q 212 430 181 430 q 150 430 131 432 q 112 433 101 440 q 90 448 86 465 q 82 482 82 513 l 82 623 q 82 652 86 668 q 90 683 101 690 q 112 698 131 700 q 150 701 181 701 q 214 701 234 700 q 255 698 267 690 q 279 683 283 668 q 287 652 287 623 z"},"m":{"x_min":0,"x_max":919,"ha":919,"o":"m 145 525 l 66 525 l 66 0 l 145 0 l 145 316 q 145 397 185 432 q 225 467 303 467 q 346 467 369 459 q 392 451 403 436 q 414 421 416 400 q 419 378 420 352 l 420 0 l 499 0 l 499 322 q 499 364 508 392 q 517 420 536 436 q 556 453 586 460 q 617 467 659 467 q 697 467 720 460 q 743 452 755 436 q 767 420 770 396 q 774 371 774 338 l 774 0 l 853 0 l 853 346 q 853 443 812 487 q 772 531 671 531 q 644 531 616 527 q 589 523 564 514 q 539 504 518 487 q 497 470 484 444 q 477 470 460 487 q 443 504 420 514 q 397 523 372 527 q 346 531 322 531 q 297 531 270 527 q 244 523 220 513 q 196 503 176 486 q 157 469 147 444 l 145 444 z"},"#":{"x_min":0,"x_max":690,"ha":690,"o":"m 273 750 l 237 546 l 118 546 l 118 466 l 223 466 l 196 303 l 81 303 l 81 223 l 181 223 l 144 0 l 219 0 l 259 223 l 382 223 l 345 0 l 421 0 l 459 223 l 576 223 l 576 303 l 475 303 l 502 466 l 609 466 l 609 546 l 517 546 l 552 750 l 473 750 l 438 546 l 314 546 l 350 750 z m 301 466 l 424 466 l 397 303 l 274 303 z"},",":{"x_min":0,"x_max":345,"ha":345,"o":"m 159 0 l 159 -19 q 159 -47 148 -56 q 137 -66 110 -67 l 110 -112 l 133 -112 q 158 -112 173 -105 q 188 -98 196 -86 q 205 -73 208 -56 q 210 -39 210 -19 l 210 102 l 121 102 l 121 0 z"},"n":{"x_min":0,"x_max":580,"ha":580,"o":"m 148 525 l 69 525 l 69 0 l 148 0 l 148 306 q 148 351 154 382 q 161 413 178 432 q 195 451 226 459 q 257 467 305 467 q 338 467 362 463 q 386 459 402 447 q 417 435 424 413 q 431 391 431 355 l 431 0 l 510 0 l 510 349 q 511 404 499 439 q 487 474 462 494 q 438 515 400 523 q 363 531 312 531 q 289 531 264 529 q 240 527 218 520 q 195 512 177 498 q 159 485 150 461 l 148 461 z"},"h":{"x_min":0,"x_max":580,"ha":580,"o":"m 148 750 l 69 750 l 69 0 l 148 0 l 148 306 q 148 351 154 382 q 161 413 178 432 q 195 451 226 459 q 257 467 305 467 q 338 467 362 463 q 386 459 402 447 q 417 435 424 413 q 431 391 431 355 l 431 0 l 510 0 l 510 349 q 511 404 499 439 q 487 474 462 494 q 438 515 400 523 q 363 531 312 531 q 289 531 264 529 q 240 527 218 520 q 195 512 177 498 q 159 485 150 461 l 148 461 z"},"z":{"x_min":0,"x_max":454,"ha":454,"o":"m 430 525 l 51 525 l 51 461 l 338 461 l 25 73 l 25 0 l 430 0 l 430 64 l 117 64 l 430 452 z"},"B":{"x_min":0,"x_max":694,"ha":694,"o":"m 146 348 l 425 348 q 467 349 492 340 q 517 331 530 312 q 544 294 548 266 q 552 238 552 201 q 552 158 544 133 q 535 108 518 95 q 501 82 475 78 q 449 75 415 75 l 146 75 z m 460 0 q 555 0 596 54 q 637 108 637 209 q 637 244 633 274 q 629 305 616 329 q 604 353 581 369 q 558 385 521 392 l 521 394 q 550 404 568 418 q 587 433 598 453 q 608 473 612 498 q 615 522 615 552 q 615 601 608 638 q 600 675 580 700 q 561 725 528 738 q 494 750 441 750 l 61 750 l 61 0 z m 146 675 l 402 675 q 435 675 460 672 q 484 668 500 656 q 515 645 522 623 q 530 601 530 563 q 530 519 523 492 q 516 464 500 449 q 484 434 458 428 q 431 423 393 423 l 146 423 z"},"K":{"x_min":0,"x_max":678,"ha":678,"o":"m 157 750 l 72 750 l 72 0 l 157 0 l 157 347 l 231 347 l 574 0 l 689 0 l 305 387 l 648 750 l 537 750 l 231 422 l 157 422 z"},"R":{"x_min":0,"x_max":701,"ha":701,"o":"m 154 300 l 427 300 q 466 300 490 292 q 515 283 529 266 q 543 248 548 222 q 553 195 553 159 l 553 0 l 638 0 l 638 199 q 638 260 609 294 q 580 329 517 334 l 517 336 q 562 342 588 358 q 614 375 628 401 q 641 427 644 461 q 648 495 648 534 q 648 598 634 640 q 621 682 592 706 q 564 731 520 740 q 476 750 415 750 l 69 750 l 69 0 l 154 0 z m 154 375 l 154 675 l 416 675 q 466 675 496 668 q 525 661 540 645 q 555 629 559 604 q 563 579 563 543 q 563 496 558 464 q 554 433 538 414 q 523 394 494 385 q 465 376 416 375 z"},"T":{"x_min":0,"x_max":579,"ha":579,"o":"m 332 675 l 575 675 l 575 750 l 4 750 l 4 675 l 247 675 l 247 0 l 332 0 z"},"P":{"x_min":0,"x_max":661,"ha":661,"o":"m 59 0 l 144 0 l 144 292 l 437 292 q 482 292 514 304 q 545 317 566 337 q 586 357 597 382 q 608 408 613 434 q 618 459 619 482 q 620 506 620 523 q 620 571 612 612 q 605 654 585 684 q 565 715 530 732 q 495 750 441 750 l 59 750 z m 404 675 q 443 675 468 670 q 494 665 509 648 q 524 630 530 598 q 535 566 535 512 q 535 457 524 428 q 513 398 492 384 q 470 371 438 369 q 406 367 364 367 l 144 367 l 144 675 z"},"|":{"x_min":0,"x_max":260,"ha":260,"o":"m 168 750 l 93 750 l 93 -250 l 168 -250 z"},"t":{"x_min":0,"x_max":366,"ha":366,"o":"m 346 525 l 143 525 l 143 652 l 64 652 l 64 525 l -6 525 l -6 461 l 64 461 l 64 152 q 64 106 70 76 q 77 45 94 27 q 110 9 140 2 q 169 -6 215 -6 q 296 -6 331 32 q 366 69 366 147 l 366 186 l 291 186 l 291 147 q 291 128 290 112 q 289 96 282 84 q 275 72 260 65 q 245 58 217 58 q 195 58 181 61 q 167 64 158 72 q 150 79 146 93 q 143 107 143 128 l 143 461 l 346 461 z"},"M":{"x_min":0,"x_max":965,"ha":965,"o":"m 808 686 l 810 686 l 810 0 l 895 0 l 895 750 l 748 750 l 482 108 l 217 750 l 70 750 l 70 0 l 155 0 l 155 686 l 157 686 l 441 0 l 525 0 z"},"g":{"x_min":0,"x_max":573,"ha":573,"o":"m 277 58 q 220 58 190 72 q 160 86 148 112 q 135 139 134 177 q 133 215 133 262 q 133 314 135 352 q 137 391 150 416 q 164 442 193 454 q 222 467 277 467 q 330 467 360 456 q 391 444 406 419 q 421 394 425 356 q 429 317 429 262 q 429 218 426 180 q 424 143 410 116 q 396 89 365 74 q 334 58 277 58 z m 508 525 l 429 525 l 429 459 l 427 458 q 415 482 398 496 q 380 510 358 518 q 336 526 310 528 q 285 531 258 531 q 190 531 150 514 q 109 496 87 462 q 65 428 58 378 q 51 328 51 262 q 51 194 60 144 q 68 94 91 60 q 114 27 154 10 q 194 -6 258 -6 q 281 -6 308 -4 q 334 -2 358 6 q 381 13 400 27 q 419 41 427 65 l 429 65 l 429 -56 q 429 -95 418 -118 q 407 -140 388 -152 q 368 -163 340 -166 q 312 -169 277 -169 q 246 -169 222 -166 q 197 -164 180 -154 q 164 -143 155 -122 q 146 -100 146 -62 l 67 -62 q 64 -119 80 -153 q 95 -187 124 -204 q 152 -222 192 -228 q 231 -233 277 -233 q 325 -233 367 -226 q 409 -219 440 -200 q 472 -181 490 -148 q 508 -115 508 -62 z"},"j":{"x_min":0,"x_max":209,"ha":209,"o":"m 147 525 l 68 525 l 68 -37 q 68 -56 68 -75 q 68 -94 64 -110 q 59 -125 47 -134 q 35 -144 11 -144 q 7 -144 3 -144 q -1 -143 -5 -143 l -5 -204 q 17 -209 34 -209 q 71 -209 92 -198 q 114 -186 126 -166 q 138 -147 142 -120 q 146 -93 147 -63 z m 147 750 l 68 750 l 68 663 l 147 663 z"},"i":{"x_min":0,"x_max":215,"ha":215,"o":"m 147 525 l 68 525 l 68 0 l 147 0 z m 147 750 l 68 750 l 68 663 l 147 663 z"},"y":{"x_min":0,"x_max":437,"ha":437,"o":"m 441 525 l 359 525 l 241 58 l 239 58 l 77 525 l -4 525 l 186 0 l 214 0 q 207 -23 201 -52 q 195 -81 184 -108 q 172 -134 154 -152 q 136 -170 105 -170 q 90 -170 77 -167 l 77 -228 q 85 -230 94 -232 q 103 -233 113 -233 q 160 -233 190 -216 q 219 -200 238 -172 q 257 -145 268 -110 q 279 -74 290 -37 z"},"@":{"x_min":0,"x_max":990,"ha":990,"o":"m 644 550 l 626 493 l 624 493 q 619 510 608 524 q 597 539 582 550 q 566 560 548 566 q 530 571 512 570 q 467 568 428 547 q 390 526 362 493 q 333 460 316 418 q 299 377 296 334 q 295 302 304 272 q 314 241 332 218 q 351 194 378 180 q 405 166 440 168 q 480 168 506 186 q 533 205 559 231 q 562 212 572 200 q 581 187 594 180 q 608 172 624 169 q 640 166 657 166 q 712 166 756 192 q 799 219 829 261 q 859 303 874 355 q 890 407 890 457 q 890 529 855 584 q 820 640 765 678 q 710 717 642 736 q 574 756 509 756 q 429 756 356 724 q 283 691 227 636 q 171 580 137 506 q 103 433 100 352 q 99 270 132 204 q 164 137 219 90 q 274 43 346 18 q 418 -7 495 -6 q 545 -5 593 4 q 641 14 686 31 l 661 89 q 627 78 584 69 q 541 60 493 59 q 431 59 374 80 q 318 101 274 138 q 231 176 204 228 q 178 281 175 344 q 173 411 200 474 q 228 536 274 584 q 321 632 382 662 q 443 691 510 691 q 564 691 619 674 q 674 658 718 626 q 763 595 792 550 q 820 506 820 450 q 820 415 812 376 q 803 337 786 304 q 768 270 742 248 q 715 226 680 226 q 612 226 626 270 l 715 550 z m 594 445 q 596 419 588 382 q 580 344 562 309 q 545 274 520 249 q 494 224 461 224 q 440 224 424 234 q 407 244 395 260 q 383 275 377 294 q 371 313 371 331 q 372 360 383 392 q 394 423 412 450 q 431 476 458 493 q 484 510 517 510 q 547 510 569 494 q 591 477 594 445 z"},".":{"x_min":0,"x_max":345,"ha":345,"o":"m 199 102 l 110 102 l 110 0 l 199 0 z"},"p":{"x_min":0,"x_max":573,"ha":573,"o":"m 294 467 q 344 467 373 457 q 402 447 416 424 q 431 400 435 360 q 439 321 439 262 q 439 198 434 158 q 428 119 412 96 q 396 74 368 66 q 340 58 294 58 q 241 58 211 72 q 181 87 166 114 q 152 140 148 178 q 145 215 145 262 q 145 314 148 352 q 150 391 164 416 q 178 442 208 454 q 238 467 294 467 z m 145 525 l 66 525 l 66 -227 l 145 -227 l 145 62 l 147 62 q 158 39 178 26 q 197 12 220 5 q 243 -2 268 -4 q 293 -6 316 -6 q 374 -6 413 6 q 452 19 476 50 q 500 81 510 132 q 521 184 521 262 q 521 321 516 370 q 511 420 490 456 q 470 491 429 511 q 388 531 316 531 q 291 531 266 528 q 241 525 218 518 q 196 510 178 496 q 159 481 147 459 l 145 461 z"},"X":{"x_min":0,"x_max":653,"ha":653,"o":"m 641 750 l 541 750 l 331 429 l 118 750 l 16 750 l 262 388 l -6 0 l 98 0 l 331 345 l 559 0 l 659 0 l 401 388 z"},"*":{"x_min":0,"x_max":690,"ha":690,"o":"m 545 589 l 526 645 l 373 588 l 373 750 l 318 750 l 318 588 l 164 645 l 145 591 l 298 533 l 202 402 l 246 369 l 346 504 l 439 369 l 483 402 l 391 533 z"},"Y":{"x_min":0,"x_max":632,"ha":632,"o":"m 638 750 l 537 750 l 315 399 l 93 750 l -6 750 l 269 313 l 269 0 l 354 0 l 354 313 z"},"c":{"x_min":0,"x_max":546,"ha":546,"o":"m 426 190 l 426 164 q 426 128 419 107 q 412 86 396 75 q 380 64 354 61 q 328 58 291 58 q 233 58 201 68 q 169 77 154 99 q 138 121 134 158 q 131 195 131 251 q 131 314 134 356 q 136 397 150 422 q 164 447 192 457 q 221 467 274 467 q 308 467 334 465 q 361 463 380 454 q 398 445 408 426 q 417 406 417 370 l 417 354 l 496 354 l 496 368 q 496 424 478 456 q 461 489 430 506 q 399 522 358 526 q 317 531 269 531 q 198 531 154 514 q 111 498 88 466 q 64 434 56 386 q 49 337 49 273 q 49 200 54 147 q 60 94 84 60 q 107 26 154 10 q 200 -6 282 -6 q 329 -6 370 0 q 410 5 440 22 q 470 39 488 72 q 505 105 505 161 l 505 190 z"},"!":{"x_min":0,"x_max":270,"ha":270,"o":"m 182 102 l 93 102 l 93 0 l 182 0 z m 182 750 l 93 750 l 101 207 l 174 207 z"},"/":{"x_min":0,"x_max":727,"ha":727,"o":"m 699 750 l 606 750 l 28 -113 l 119 -113 z"},"[":{"x_min":0,"x_max":311,"ha":311,"o":"m 55 756 l 55 -150 l 249 -150 l 249 -75 l 140 -75 l 140 681 l 249 681 l 249 756 z"},"6":{"x_min":0,"x_max":690,"ha":690,"o":"m 363 389 q 423 389 458 384 q 493 379 510 362 q 528 346 533 314 q 538 282 538 229 q 538 178 534 147 q 530 116 511 98 q 492 81 454 75 q 415 69 345 69 q 278 69 240 76 q 201 83 182 103 q 162 123 157 160 q 152 198 152 259 q 152 304 162 330 q 172 356 196 369 q 220 382 260 386 q 301 389 363 389 z m 67 259 q 67 172 81 120 q 95 67 128 39 q 160 11 213 2 q 266 -6 345 -6 q 425 -6 478 2 q 532 11 564 36 q 596 61 610 107 q 623 153 623 229 q 623 308 609 354 q 595 401 562 426 q 529 450 476 457 q 423 464 345 464 q 259 464 214 447 q 168 430 154 395 l 152 395 l 152 556 q 153 604 164 630 q 176 655 200 666 q 224 678 261 680 q 298 681 349 681 q 391 681 423 680 q 455 678 477 668 q 499 659 510 638 q 521 618 521 581 l 521 560 l 606 560 l 606 584 q 606 649 583 684 q 560 719 524 735 q 487 751 441 754 q 395 756 349 756 q 283 756 231 750 q 179 744 143 723 q 107 702 88 662 q 68 623 67 556 z"},"r":{"x_min":0,"x_max":442,"ha":442,"o":"m 58 525 l 58 0 l 137 0 l 137 327 q 136 362 142 388 q 148 414 163 432 q 178 449 203 458 q 228 467 265 467 q 315 467 334 448 q 353 429 353 380 l 353 345 l 428 345 l 428 383 q 428 457 393 494 q 358 531 282 531 q 260 531 238 528 q 215 524 196 516 q 176 508 160 494 q 143 480 133 458 l 131 460 l 135 525 z"},"2":{"x_min":0,"x_max":690,"ha":690,"o":"m 612 75 l 157 75 l 157 139 q 157 180 166 206 q 174 231 196 246 q 219 260 257 267 q 295 274 355 279 q 426 285 476 295 q 525 305 556 330 q 586 355 600 400 q 614 444 614 519 q 614 590 601 636 q 588 682 558 708 q 528 735 478 746 q 428 756 353 756 q 255 756 199 744 q 143 732 115 706 q 87 679 80 636 q 72 593 72 532 l 72 493 l 157 493 l 157 532 q 156 584 161 614 q 166 643 186 658 q 207 673 246 677 q 285 681 353 681 q 406 681 440 678 q 475 674 494 658 q 514 642 522 610 q 529 577 529 519 q 529 460 521 430 q 513 399 492 384 q 470 369 432 364 q 395 360 335 354 q 267 347 218 338 q 168 329 136 306 q 104 284 88 242 q 72 200 72 127 l 72 0 l 612 0 z"},"{":{"x_min":0,"x_max":334,"ha":334,"o":"m 48 266 q 73 263 88 252 q 104 242 112 225 q 121 208 124 185 q 126 162 126 133 l 126 -31 q 126 -58 135 -80 q 144 -102 157 -118 q 170 -133 184 -142 q 198 -150 208 -150 l 291 -150 l 291 -75 l 247 -75 q 225 -75 218 -58 q 211 -42 211 -13 l 211 149 q 211 188 201 216 q 191 244 178 262 q 166 281 154 290 q 142 300 139 303 q 142 305 154 315 q 166 325 178 344 q 191 362 201 390 q 211 418 211 457 l 211 620 q 211 649 218 665 q 225 681 247 681 l 291 681 l 291 756 l 208 756 q 198 756 184 748 q 170 739 157 723 q 144 707 135 686 q 126 664 126 637 l 126 473 q 126 444 124 420 q 121 397 112 380 q 104 364 88 354 q 73 344 48 341 z"},"9":{"x_min":0,"x_max":690,"ha":690,"o":"m 349 366 q 287 366 250 370 q 212 374 192 389 q 171 404 164 434 q 157 465 157 518 q 157 577 163 610 q 169 643 188 658 q 208 674 246 678 q 284 681 349 681 q 405 681 442 678 q 480 675 502 660 q 524 644 533 611 q 542 578 542 518 q 542 465 536 434 q 530 404 510 389 q 490 374 452 370 q 414 366 349 366 z m 63 163 q 63 101 83 67 q 103 33 140 16 q 177 0 230 -3 q 283 -6 349 -6 q 439 -6 494 4 q 548 15 578 42 q 608 68 618 114 q 627 160 627 231 l 627 518 q 627 595 614 642 q 600 688 568 714 q 535 739 482 748 q 428 756 349 756 q 268 756 214 748 q 161 740 130 714 q 98 689 85 642 q 72 595 72 518 q 72 443 86 398 q 100 353 132 330 q 165 306 218 298 q 271 291 349 291 q 360 291 386 291 q 413 291 443 297 q 473 303 500 317 q 528 331 540 358 l 542 356 l 542 231 q 542 172 534 140 q 526 107 504 92 q 483 76 446 72 q 408 69 349 69 q 287 69 248 72 q 208 74 186 84 q 164 93 156 112 q 148 131 148 163 l 148 191 l 63 191 z"}," ":{"x_min":0,"x_max":345,"ha":345,"o":""},"I":{"x_min":0,"x_max":228,"ha":228,"o":"m 157 750 l 72 750 l 72 0 l 157 0 z"},"H":{"x_min":0,"x_max":750,"ha":750,"o":"m 680 750 l 595 750 l 595 420 l 156 420 l 156 750 l 71 750 l 71 0 l 156 0 l 156 345 l 595 345 l 595 0 l 680 0 z"},"4":{"x_min":0,"x_max":690,"ha":690,"o":"m 537 750 l 407 750 l 30 272 l 30 171 l 452 171 l 452 0 l 537 0 l 537 171 l 646 171 l 646 246 l 537 246 z m 452 246 l 100 246 l 450 695 l 452 695 z"},"~":{"x_min":0,"x_max":584,"ha":584,"o":"m 120 215 q 118 233 122 250 q 126 267 132 280 q 139 292 148 300 q 158 308 168 308 q 177 308 188 304 q 198 300 208 292 l 328 216 q 377 186 418 188 q 447 188 470 204 q 492 219 507 243 q 522 267 529 295 q 536 323 534 349 l 464 349 q 465 334 464 319 q 463 304 458 292 q 453 280 444 272 q 434 264 420 264 q 399 262 373 277 l 227 365 q 219 370 201 376 q 183 381 160 379 q 129 376 108 360 q 88 344 75 321 q 62 298 56 270 q 51 242 50 215 z"},"D":{"x_min":0,"x_max":734,"ha":734,"o":"m 64 0 l 449 0 q 505 0 544 16 q 584 31 610 56 q 637 82 652 114 q 667 145 674 176 q 682 207 684 235 q 686 263 686 282 l 686 461 q 686 530 674 578 q 661 627 640 659 q 619 691 592 710 q 565 728 536 737 q 508 746 480 748 q 452 750 429 750 l 64 750 z m 149 75 l 149 675 l 443 675 q 497 675 528 652 q 559 630 576 600 q 592 570 596 540 q 601 510 601 494 l 601 297 q 600 247 594 206 q 588 165 570 136 q 552 107 518 91 q 485 75 429 75 z"},"^":{"x_min":0,"x_max":584,"ha":584,"o":"m 257 750 l 50 261 l 130 261 l 292 652 l 454 261 l 534 261 l 327 750 z"},"0":{"x_min":0,"x_max":690,"ha":690,"o":"m 344 681 q 414 681 460 678 q 505 675 532 656 q 558 638 568 598 q 579 558 579 485 l 579 265 q 579 192 568 152 q 558 112 532 94 q 505 75 460 72 q 414 69 344 69 q 275 69 230 72 q 185 75 158 94 q 132 112 122 152 q 111 192 111 265 l 111 485 q 111 558 122 598 q 132 638 158 656 q 185 675 230 678 q 275 681 344 681 z m 346 -6 q 433 -6 493 2 q 553 11 590 40 q 628 68 645 122 q 662 175 664 265 l 664 485 q 662 575 644 628 q 627 682 590 710 q 552 739 492 748 q 432 756 344 756 q 257 756 197 748 q 137 739 100 710 q 62 682 45 628 q 28 575 26 485 l 26 265 q 28 175 46 122 q 63 68 100 40 q 138 11 198 2 q 258 -6 346 -6 z"},"F":{"x_min":0,"x_max":549,"ha":549,"o":"m 150 675 l 525 675 l 525 750 l 65 750 l 65 0 l 150 0 l 150 343 l 515 343 l 515 413 l 150 413 z"},"`":{"x_min":0,"x_max":338,"ha":338,"o":"m 115 743 l 75 689 l 237 589 l 263 630 z"},"k":{"x_min":0,"x_max":487,"ha":487,"o":"m 147 750 l 68 750 l 68 0 l 147 0 l 147 252 l 179 252 l 402 0 l 506 0 l 240 284 l 465 525 l 368 525 l 179 316 l 147 316 z"},"u":{"x_min":0,"x_max":570,"ha":570,"o":"m 420 0 l 500 0 l 500 525 l 421 525 l 421 201 q 421 154 410 126 q 400 98 379 83 q 358 68 326 63 q 295 58 253 58 q 215 58 193 66 q 171 75 160 92 q 150 108 148 132 q 145 156 145 188 l 145 525 l 66 525 l 66 188 q 66 136 76 100 q 86 63 108 40 q 130 16 166 5 q 202 -6 254 -6 q 280 -6 305 -3 q 330 0 352 8 q 373 16 390 31 q 407 46 418 70 l 420 70 z"},"]":{"x_min":0,"x_max":311,"ha":311,"o":"m 256 -150 l 256 756 l 62 756 l 62 681 l 171 681 l 171 -75 l 62 -75 l 62 -150 z"},"U":{"x_min":0,"x_max":737,"ha":737,"o":"m 581 750 l 581 210 q 581 157 569 128 q 557 100 532 87 q 506 74 466 72 q 426 69 369 69 q 300 69 258 74 q 217 79 194 94 q 172 109 164 136 q 157 164 157 210 l 157 750 l 72 750 l 72 210 q 72 130 96 86 q 119 43 159 22 q 199 2 253 -2 q 307 -6 369 -6 q 435 -6 490 0 q 545 5 584 26 q 623 48 644 92 q 666 135 666 210 l 666 750 z"},"o":{"x_min":0,"x_max":570,"ha":570,"o":"m 52 262 q 52 179 61 127 q 70 75 96 46 q 121 16 166 5 q 212 -6 285 -6 q 358 -6 404 5 q 449 16 474 46 q 500 75 509 127 q 518 179 518 262 q 518 345 509 398 q 500 450 474 480 q 449 509 404 520 q 358 531 285 531 q 212 531 166 520 q 121 509 96 480 q 70 450 61 398 q 52 345 52 262 z m 134 262 q 134 331 138 372 q 142 412 157 433 q 172 454 202 460 q 232 467 285 467 q 338 467 368 460 q 398 454 413 433 q 428 412 432 372 q 436 331 436 262 q 436 194 432 154 q 428 113 413 92 q 398 71 368 64 q 338 58 285 58 q 232 58 202 64 q 172 71 157 92 q 142 113 138 154 q 134 194 134 262 z"},"N":{"x_min":0,"x_max":783,"ha":783,"o":"m 715 750 l 630 750 l 630 65 l 628 65 l 208 750 l 68 750 l 68 0 l 153 0 l 153 680 l 155 680 l 576 0 l 715 0 z"},"+":{"x_min":0,"x_max":584,"ha":584,"o":"m 255 525 l 255 321 l 50 321 l 50 246 l 255 246 l 255 41 l 330 41 l 330 246 l 534 246 l 534 321 l 330 321 l 330 525 z"},"G":{"x_min":0,"x_max":696,"ha":696,"o":"m 339 375 l 339 300 l 578 300 l 578 207 q 578 162 570 135 q 563 108 543 93 q 523 78 488 74 q 453 69 397 69 l 317 69 q 264 69 228 76 q 193 83 170 102 q 148 122 138 156 q 129 190 129 244 l 129 485 q 129 546 136 584 q 142 623 162 644 q 181 666 218 674 q 254 681 315 681 l 420 681 q 466 681 496 676 q 526 672 544 660 q 562 648 569 627 q 576 606 576 574 l 576 531 l 661 531 l 661 589 q 661 634 646 666 q 630 698 603 718 q 576 738 540 747 q 503 756 461 756 l 264 756 q 216 756 176 744 q 135 732 106 702 q 77 672 60 622 q 44 571 44 495 l 44 263 q 44 176 61 123 q 78 70 113 42 q 148 13 202 4 q 257 -6 332 -6 l 414 -6 q 478 -6 524 4 q 571 13 602 37 q 633 61 648 104 q 663 146 663 212 l 663 375 z"},"q":{"x_min":0,"x_max":575,"ha":575,"o":"m 284 58 q 229 58 198 69 q 168 80 154 104 q 140 129 137 168 q 134 207 134 262 q 134 330 140 370 q 147 411 163 432 q 179 454 206 460 q 232 467 272 467 q 328 467 360 456 q 391 444 406 420 q 421 395 424 356 q 427 317 427 262 q 427 211 424 172 q 420 134 406 108 q 391 83 362 70 q 334 58 284 58 z m 508 525 l 429 525 l 429 462 l 427 460 q 405 502 362 516 q 320 531 273 531 q 198 531 154 513 q 111 495 88 461 q 65 427 58 376 q 52 326 52 262 q 52 177 64 124 q 76 72 102 43 q 129 14 171 4 q 213 -6 273 -6 q 292 -6 314 -4 q 337 -2 359 4 q 381 11 399 24 q 417 37 427 60 l 429 60 l 429 -227 l 508 -227 z"},"d":{"x_min":0,"x_max":574,"ha":574,"o":"m 280 58 q 238 58 209 64 q 180 71 163 92 q 146 113 138 154 q 131 194 131 262 q 131 331 138 372 q 144 412 160 434 q 177 455 206 461 q 235 467 280 467 q 328 467 357 455 q 386 443 402 418 q 417 394 422 355 q 426 316 426 262 q 426 201 420 162 q 415 122 399 99 q 383 76 354 67 q 326 58 280 58 z m 426 0 l 505 0 l 505 750 l 426 750 l 426 460 l 424 460 q 415 484 396 498 q 377 512 353 520 q 329 527 303 529 q 277 531 255 531 q 184 531 143 511 q 102 491 81 456 q 60 420 54 370 q 49 321 49 262 q 49 202 55 152 q 61 103 82 68 q 103 33 144 14 q 185 -6 255 -6 q 282 -6 307 -4 q 332 -1 354 7 q 377 15 394 30 q 412 44 424 68 l 426 66 z"},"1":{"x_min":0,"x_max":690,"ha":690,"o":"m 448 750 l 325 750 l 118 525 l 171 474 l 363 685 l 363 0 l 448 0 z"},"5":{"x_min":0,"x_max":690,"ha":690,"o":"m 166 675 l 591 675 l 591 750 l 81 750 l 81 370 l 166 370 q 171 400 192 414 q 212 429 238 434 q 265 439 294 438 q 323 438 346 438 q 406 438 444 433 q 481 428 502 410 q 523 391 530 356 q 537 320 537 260 q 537 198 532 160 q 527 123 508 103 q 488 83 450 76 q 412 69 346 69 q 296 69 260 72 q 223 74 200 86 q 176 97 165 122 q 154 146 154 190 l 154 215 l 68 215 l 69 197 q 73 129 88 88 q 103 48 136 27 q 168 6 219 0 q 270 -6 346 -6 q 431 -6 485 2 q 539 11 570 39 q 600 67 611 120 q 622 172 622 260 q 622 314 616 360 q 609 407 584 440 q 558 474 508 494 q 458 513 370 513 q 346 513 316 512 q 287 510 258 504 q 230 498 206 486 q 181 473 168 451 l 166 451 z"}}}
